<?xml version="1.0" encoding="UTF-8" standalone="no"?>
<!DOCTYPE svg PUBLIC "-//W3C//DTD SVG 1.1//EN" "http://www.w3.org/Graphics/SVG/1.1/DTD/svg11.dtd">
<!-- Generated by Microsoft Visio, SVG Export TwoArea_Shoaib.svg Page-1 -->
<svg xmlns="http://www.w3.org/2000/svg" xmlns:xlink="http://www.w3.org/1999/xlink" xmlns:ev="http://www.w3.org/2001/xml-events"
		xmlns:v="http://schemas.microsoft.com/visio/2003/SVGExtensions/" width="8.52838in" height="3.08439in"
		viewBox="0 0 614.043 222.076" xml:space="preserve" color-interpolation-filters="sRGB" class="st30">
	<v:documentProperties v:langID="1053" v:metric="true" v:viewMarkup="false">
		<v:userDefs>
			<v:ud v:nameU="msvConvertTheme"/>
		</v:userDefs>
	</v:documentProperties>

	<style type="text/css">
	<![CDATA[
		.st1 {fill:#f2dcda;stroke:#000000;stroke-linecap:round;stroke-linejoin:round;stroke-width:0.24}
		.st2 {fill:#eeeaf2;stroke:#000000;stroke-linecap:round;stroke-linejoin:round;stroke-width:0.24}
		.st3 {fill:#ffffff;stroke:#000000;stroke-linecap:round;stroke-linejoin:round;stroke-width:0.24}
		.st4 {fill:#000000;font-family:Calibri;font-size:1.16666em}
		.st5 {fill:none;stroke:none;stroke-linecap:round;stroke-linejoin:round;stroke-width:0.75}
		.st6 {fill:#000000;font-family:Calibri;font-size:1.5em}
		.st7 {fill:#000000;font-family:Calibri;font-size:0.833336em}
		.st8 {font-size:1em}
		.st9 {marker-end:url(#mrkr13-23);stroke:#000000;stroke-linecap:round;stroke-linejoin:round;stroke-width:3}
		.st10 {fill:#000000;fill-opacity:1;stroke:#000000;stroke-opacity:1;stroke-width:0.54347826086957}
		.st11 {fill:#000000;font-family:Calibri;font-size:1.00001em}
		.st12 {stroke:#000000;stroke-linecap:round;stroke-linejoin:round;stroke-width:0.24}
		.st13 {stroke:#000000;stroke-linecap:round;stroke-linejoin:round;stroke-width:1.5}
		.st14 {fill:#000000;font-family:Calibri;font-size:0.75em}
		.st15 {fill:#c4d6a0;stroke:#000000;stroke-linecap:round;stroke-linejoin:round;stroke-width:0.24}
		.st16 {marker-end:url(#mrkr13-201);stroke:#1f477d;stroke-linecap:round;stroke-linejoin:round;stroke-width:0.75}
		.st17 {fill:#1f477d;fill-opacity:1;stroke:#1f477d;stroke-opacity:1;stroke-width:0.22935779816514}
		.st18 {fill:#bfbfbf;stroke:#000000;stroke-linecap:round;stroke-linejoin:round;stroke-width:0.24}
		.st19 {fill:#c6d8f0;stroke:#000000;stroke-linecap:round;stroke-linejoin:round;stroke-width:0.24}
		.st20 {marker-end:url(#mrkr1-226);stroke:#ff0000;stroke-linecap:round;stroke-linejoin:round;stroke-width:0.75}
		.st21 {fill:#ff0000;fill-opacity:1;stroke:#ff0000;stroke-opacity:1;stroke-width:0.22935779816514}
		.st22 {baseline-shift:-32.4947%;font-size:0.649894em}
		.st23 {baseline-shift:-32.4941%;font-size:0.649882em}
		.st24 {marker-start:url(#mrkr1-263);stroke:#000000;stroke-linecap:round;stroke-linejoin:round;stroke-width:0.75}
		.st25 {fill:#000000;fill-opacity:1;stroke:#000000;stroke-opacity:1;stroke-width:0.22935779816514}
		.st26 {marker-end:url(#mrkr1-269);stroke:#000000;stroke-dasharray:0.75,1.5;stroke-linecap:round;stroke-linejoin:round;stroke-width:0.75}
		.st27 {marker-end:url(#mrkr1-269);stroke:#000000;stroke-linecap:round;stroke-linejoin:round;stroke-width:0.75}
		.st28 {stroke:#000000;stroke-dasharray:0.75,1.5;stroke-linecap:round;stroke-linejoin:round;stroke-width:0.75}
		.st29 {fill:#dde2cd;stroke:#000000;stroke-linecap:round;stroke-linejoin:round;stroke-width:0.24}
		.st30 {fill:none;fill-rule:evenodd;font-size:12px;overflow:visible;stroke-linecap:square;stroke-miterlimit:3}
	]]>
	</style>

	<defs id="Markers">
		<g id="lend13">
			<path d="M 3 1 L 0 0 L 3 -1 L 3 1 " style="stroke:none"/>
		</g>
		<marker id="mrkr13-23" class="st10" v:arrowType="13" v:arrowSize="2" v:setback="5.52" refX="-5.52" orient="auto"
				markerUnits="strokeWidth" overflow="visible">
			<use xlink:href="#lend13" transform="scale(-1.84,-1.84) "/>
		</marker>
		<marker id="mrkr13-201" class="st17" v:arrowType="13" v:arrowSize="2" v:setback="0" refX="-0" orient="auto"
				markerUnits="strokeWidth" overflow="visible">
			<use xlink:href="#lend13" transform="scale(-4.36,-4.36) "/>
		</marker>
		<g id="lend1">
			<path d="M 1 -1 L 0 0 L 1 1 " style="stroke-linecap:round;stroke-linejoin:round;fill:none"/>
		</g>
		<marker id="mrkr1-226" class="st21" v:arrowType="1" v:arrowSize="2" orient="auto" markerUnits="strokeWidth"
				overflow="visible">
			<use xlink:href="#lend1" transform="scale(-4.36,-4.36) "/>
		</marker>
		<marker id="mrkr1-263" class="st25" v:arrowType="1" v:arrowSize="2" orient="auto" markerUnits="strokeWidth"
				overflow="visible">
			<use xlink:href="#lend1" transform="scale(4.36) "/>
		</marker>
		<marker id="mrkr1-269" class="st25" v:arrowType="1" v:arrowSize="2" orient="auto" markerUnits="strokeWidth"
				overflow="visible">
			<use xlink:href="#lend1" transform="scale(-4.36,-4.36) "/>
		</marker>
	</defs>
	<g v:mID="0" v:index="1" v:groupContext="foregroundPage">
		<title>Page-1</title>
		<v:pageProperties v:drawingScale="0.0393701" v:pageScale="0.0393701" v:drawingUnits="24" v:shadowOffsetX="8.50394"
				v:shadowOffsetY="-8.50394"/>
		<g id="shape1-1" v:mID="1" v:groupContext="shape" transform="translate(375.892,-34.3922)">
			<title>Sheet.1</title>
			<rect x="0" y="35.1422" width="237.719" height="186.934" class="st1"/>
		</g>
		<g id="shape2-3" v:mID="2" v:groupContext="shape" transform="translate(0.75,-34.1422)">
			<title>Sheet.2</title>
			<rect x="0" y="35.1422" width="251.892" height="186.934" class="st2"/>
		</g>
		<g id="shape3-5" v:mID="3" v:groupContext="shape" transform="translate(10.2795,-143.276)">
			<title>Sheet.3</title>
			<desc>G1</desc>
			<v:textBlock v:margins="rect(2,2,2,2)" v:tabSpace="42.5197"/>
			<v:textRect cx="21.064" cy="201.34" width="42.13" height="41.4731"/>
			<ellipse cx="21.064" cy="201.34" rx="21.064" ry="20.7366" class="st3"/>
			<text x="13.1" y="205.54" class="st4" v:langID="1053"><v:paragraph v:horizAlign="1"/><v:tabList/>G1</text>		</g>
		<g id="shape4-8" v:mID="4" v:groupContext="shape" transform="translate(7.83661,-56.7102)">
			<title>Sheet.4</title>
			<desc>G2</desc>
			<v:textBlock v:margins="rect(2,2,2,2)" v:tabSpace="42.5197"/>
			<v:textRect cx="18.938" cy="203.433" width="37.88" height="37.2872"/>
			<ellipse cx="18.938" cy="203.433" rx="18.938" ry="18.6436" class="st3"/>
			<text x="10.97" y="207.63" class="st4" v:langID="1053"><v:paragraph v:horizAlign="1"/><v:tabList/>G2</text>		</g>
		<g id="shape5-11" v:mID="5" v:groupContext="shape" transform="translate(107.049,-195.891)">
			<title>Sheet.5</title>
			<desc>Area 1</desc>
			<v:textBlock v:margins="rect(2,2,2,2)" v:tabSpace="42.5197"/>
			<v:textRect cx="26.0246" cy="209.484" width="52.05" height="25.1851"/>
			<rect x="0" y="196.891" width="52.0492" height="25.1851" class="st5"/>
			<text x="2.29" y="214.88" class="st6" v:langID="1053"><v:paragraph v:horizAlign="1"/><v:tabList/>Area 1</text>		</g>
		<g id="shape6-14" v:mID="6" v:groupContext="shape" transform="translate(186.594,-90.8351)">
			<title>Sheet.6</title>
			<desc>Local Loads</desc>
			<v:textBlock v:margins="rect(2,2,2,2)" v:tabSpace="42.5197"/>
			<v:textRect cx="16.7244" cy="202.942" width="33.45" height="38.2677"/>
			<rect x="0" y="183.809" width="33.4488" height="38.2677" class="st3"/>
			<text x="6.33" y="199.94" class="st7" v:langID="1053"><v:paragraph v:horizAlign="1"/><v:tabList/>Local <tspan x="5.01"
						dy="1.2em" class="st8">Loads</tspan></text>		</g>
		<g id="shape7-18" v:mID="7" v:groupContext="shape" transform="translate(258.507,-193.068)">
			<title>Sheet.7</title>
			<path d="M0 222.08 L100.82 222.08" class="st9"/>
		</g>
		<g id="shape8-24" v:mID="8" v:groupContext="shape" transform="translate(0.75,-39.9967)">
			<title>Sheet.8</title>
			<desc>900 MVA</desc>
			<v:textBlock v:margins="rect(2,2,2,2)" v:tabSpace="42.5197"/>
			<v:textRect cx="26.5748" cy="213.572" width="53.15" height="17.0079"/>
			<rect x="0" y="205.068" width="53.1496" height="17.0079" class="st5"/>
			<text x="4.09" y="217.17" class="st11" v:langID="1053"><v:paragraph v:horizAlign="1"/><v:tabList/>900 MVA</text>		</g>
		<g id="shape9-27" v:mID="9" v:groupContext="shape" transform="translate(6.73622,-182.961)">
			<title>Sheet.9</title>
			<desc>900 MVA</desc>
			<v:textBlock v:margins="rect(2,2,2,2)" v:tabSpace="42.5197"/>
			<v:textRect cx="26.5748" cy="213.572" width="53.15" height="17.0079"/>
			<rect x="0" y="205.068" width="53.1496" height="17.0079" class="st5"/>
			<text x="4.09" y="217.17" class="st11" v:langID="1053"><v:paragraph v:horizAlign="1"/><v:tabList/>900 MVA</text>		</g>
		<g id="shape10-30" v:mID="10" v:groupContext="shape" transform="translate(51.3535,-159.113) rotate(-0.118052)">
			<title>Sheet.10</title>
			<path d="M0 222.08 L22.82 222.08" class="st12"/>
		</g>
		<g id="shape11-33" v:mID="11" v:groupContext="shape" transform="translate(43.8864,-73.4381) rotate(-0.445473)">
			<title>Sheet.11</title>
			<path d="M0 222.08 L21.37 222.08" class="st12"/>
		</g>
		<g id="group12-36" transform="translate(66.9724,-61.1806)" v:mID="12" v:groupContext="group">
			<title>Sheet.12</title>
			<g id="shape13-37" v:mID="13" v:groupContext="shape">
				<title>Sheet.13</title>
				<ellipse cx="11.9055" cy="210.029" rx="11.9055" ry="12.0472" class="st3"/>
			</g>
			<g id="shape14-39" v:mID="14" v:groupContext="shape" transform="translate(12.4724,2.84217E-014)">
				<title>Sheet.14</title>
				<ellipse cx="11.9055" cy="210.029" rx="11.9055" ry="12.0472" class="st3"/>
			</g>
		</g>
		<g id="group15-41" transform="translate(74.626,-147.528)" v:mID="15" v:groupContext="group">
			<title>Sheet.15</title>
			<g id="shape16-42" v:mID="16" v:groupContext="shape">
				<title>Sheet.16</title>
				<ellipse cx="11.9055" cy="210.029" rx="11.9055" ry="12.0472" class="st3"/>
			</g>
			<g id="shape17-44" v:mID="17" v:groupContext="shape" transform="translate(12.4724,2.84217E-014)">
				<title>Sheet.17</title>
				<ellipse cx="11.9055" cy="210.029" rx="11.9055" ry="12.0472" class="st3"/>
			</g>
		</g>
		<g id="shape18-46" v:mID="18" v:groupContext="shape" transform="translate(54.5354,-126.268)">
			<title>Sheet.18</title>
			<desc>900 MVA 20 kV / 230 kV</desc>
			<v:textBlock v:margins="rect(2,2,2,2)" v:tabSpace="42.5197"/>
			<v:textRect cx="38.2323" cy="213.572" width="76.47" height="17.0079"/>
			<rect x="0" y="205.068" width="76.4646" height="17.0079" class="st5"/>
			<text x="19.49" y="210.57" class="st7" v:langID="1053"><v:paragraph v:horizAlign="1"/><v:tabList/>900 MVA<v:newlineChar/><tspan
						x="8.89" dy="1.2em" class="st8">20 </tspan>kV / 230 kV</text>		</g>
		<g id="shape19-50" v:mID="19" v:groupContext="shape" transform="translate(110.845,-158.321)">
			<title>Sheet.19</title>
			<path d="M0 222.08 L19.91 222.08" class="st12"/>
		</g>
		<g id="shape20-53" v:mID="20" v:groupContext="shape" transform="translate(352.261,57.5404) rotate(90)">
			<title>Sheet.20</title>
			<path d="M0 222.08 L14.17 222.08" class="st12"/>
		</g>
		<g id="shape21-56" v:mID="21" v:groupContext="shape" transform="translate(130.752,-158.321)">
			<title>Sheet.21</title>
			<path d="M0 222.08 L32.6 222.08" class="st13"/>
		</g>
		<g id="shape22-59" v:mID="22" v:groupContext="shape" transform="translate(109.563,-157.449)">
			<title>Sheet.22</title>
			<desc>25 Km</desc>
			<v:textBlock v:margins="rect(2,2,2,2)" v:tabSpace="42.5197"/>
			<v:textRect cx="38.2323" cy="213.572" width="76.47" height="17.0079"/>
			<rect x="0" y="205.068" width="76.4646" height="17.0079" class="st5"/>
			<text x="25.44" y="216.57" class="st7" v:langID="1053"><v:paragraph v:horizAlign="1"/><v:tabList/>25 Km</text>		</g>
		<g id="shape23-62" v:mID="23" v:groupContext="shape" transform="translate(163.35,-158.321)">
			<title>Sheet.23</title>
			<path d="M0 222.08 L32.6 222.08" class="st13"/>
		</g>
		<g id="shape24-65" v:mID="24" v:groupContext="shape" transform="translate(142.161,-157.449)">
			<title>Sheet.24</title>
			<desc>10 Km</desc>
			<v:textBlock v:margins="rect(2,2,2,2)" v:tabSpace="42.5197"/>
			<v:textRect cx="38.2323" cy="213.572" width="76.47" height="17.0079"/>
			<rect x="0" y="205.068" width="76.4646" height="17.0079" class="st5"/>
			<text x="25.44" y="216.57" class="st7" v:langID="1053"><v:paragraph v:horizAlign="1"/><v:tabList/>10 Km</text>		</g>
		<g id="shape25-68" v:mID="25" v:groupContext="shape" transform="translate(386.844,57.5404) rotate(90)">
			<title>Sheet.25</title>
			<path d="M0 222.08 L14.17 222.08" class="st12"/>
		</g>
		<g id="shape26-71" v:mID="26" v:groupContext="shape" transform="translate(418.592,50.4538) rotate(90)">
			<title>Sheet.26</title>
			<path d="M0 222.08 L21.26 222.08" class="st12"/>
		</g>
		<g id="shape27-74" v:mID="27" v:groupContext="shape" transform="translate(103.136,-71.5239)">
			<title>Sheet.27</title>
			<path d="M0 222.08 L19.65 222.08 L47.75 222.08 L47.75 140.4 L48.88 140.4" class="st12"/>
		</g>
		<g id="shape28-77" v:mID="28" v:groupContext="shape" transform="translate(152.012,-153.197)">
			<title>Sheet.28</title>
			<path d="M0 222.08 L12.76 222.08" class="st12"/>
		</g>
		<g id="shape29-80" v:mID="29" v:groupContext="shape" transform="translate(47.2008,-41.2288)">
			<title>Sheet.29</title>
			<desc>900 MVA 20 kV / 230 kV</desc>
			<v:textBlock v:margins="rect(2,2,2,2)" v:tabSpace="42.5197"/>
			<v:textRect cx="38.2323" cy="213.572" width="76.47" height="17.0079"/>
			<rect x="0" y="205.068" width="76.4646" height="17.0079" class="st5"/>
			<text x="19.49" y="210.57" class="st7" v:langID="1053"><v:paragraph v:horizAlign="1"/><v:tabList/>900 MVA<v:newlineChar/><tspan
						x="8.89" dy="1.2em" class="st8">20 </tspan>kV / 230 kV</text>		</g>
		<g id="shape30-84" v:mID="30" v:groupContext="shape" transform="translate(196.516,-129.103)">
			<title>Sheet.30</title>
			<path d="M0 196.56 L7.09 196.56 L7.09 222.08" class="st12"/>
		</g>
		<g id="shape31-87" v:mID="31" v:groupContext="shape" transform="translate(157.752,-66.5881)">
			<title>Sheet.31</title>
			<desc>967 MW 100 MVAR (Inductive) -387 MVAR (Capacitive)</desc>
			<v:textBlock v:margins="rect(2,2,2,2)" v:tabSpace="42.5197"/>
			<v:textRect cx="45.3189" cy="213.572" width="90.64" height="17.0079"/>
			<rect x="0" y="205.068" width="90.6378" height="17.0079" class="st5"/>
			<text x="29.61" y="205.47" class="st14" v:langID="1053"><v:paragraph v:horizAlign="1"/><v:tabList/>967 MW<v:newlineChar/><tspan
						x="5.32" dy="1.2em" class="st8">100 </tspan>MVAR (Inductive)<v:newlineChar/><tspan x="2.07" dy="1.2em"
						class="st8">-</tspan>387 MVAR (Capacitive)</text>		</g>
		<g id="shape32-92" v:mID="32" v:groupContext="shape" transform="translate(196.516,-167.556)">
			<title>Sheet.32</title>
			<path d="M0 222.08 L222.46 222.08" class="st13"/>
		</g>
		<g id="shape33-95" v:mID="33" v:groupContext="shape" transform="translate(195.949,-158.321)">
			<title>Sheet.33</title>
			<path d="M0 222.08 L223.03 222.08" class="st13"/>
		</g>
		<g id="shape34-98" v:mID="34" v:groupContext="shape" transform="translate(254.857,-171.921)">
			<title>Sheet.34</title>
			<desc>220 Km Parallel Transmission Lines</desc>
			<v:textBlock v:margins="rect(2,2,2,2)" v:tabSpace="42.5197"/>
			<v:textRect cx="56.1673" cy="213.572" width="112.34" height="17.0079"/>
			<rect x="0" y="205.068" width="112.335" height="17.0079" class="st5"/>
			<text x="24.67" y="210.57" class="st7" v:langID="1053"><v:paragraph v:horizAlign="1"/><v:tabList/>220 Km Parallel <tspan
						x="18.1" dy="1.2em" class="st8">Transmission Lines</tspan></text>		</g>
		<g id="shape35-102" v:mID="35" v:groupContext="shape" transform="translate(248.863,-198.737)">
			<title>Sheet.35</title>
			<desc>Power Transfer Area 1 to Area 2</desc>
			<v:textBlock v:margins="rect(2,2,2,2)" v:tabSpace="42.5197"/>
			<v:textRect cx="64.4705" cy="213.572" width="128.95" height="17.0079"/>
			<rect x="0" y="205.068" width="128.941" height="17.0079" class="st5"/>
			<text x="33.4" y="210.57" class="st7" v:langID="1053"><v:paragraph v:horizAlign="1"/><v:tabList/>Power Transfer<v:newlineChar/><tspan
						x="31.53" dy="1.2em" class="st8">Area </tspan>1 to Area 2</text>		</g>
		<g id="shape36-106" v:mID="36" v:groupContext="shape" transform="translate(641.055,50.4538) rotate(90)">
			<title>Sheet.36</title>
			<path d="M0 222.08 L21.26 222.08" class="st12"/>
		</g>
		<g id="shape37-109" v:mID="37" v:groupContext="shape" transform="translate(419.262,-162.573)">
			<title>Sheet.37</title>
			<path d="M0 222.08 L32.6 222.08" class="st13"/>
		</g>
		<g id="shape38-112" v:mID="38" v:groupContext="shape" transform="translate(451.86,-162.573)">
			<title>Sheet.38</title>
			<path d="M0 222.08 L32.6 222.08" class="st13"/>
		</g>
		<g id="shape39-115" v:mID="39" v:groupContext="shape" transform="translate(675.354,53.2884) rotate(90)">
			<title>Sheet.39</title>
			<path d="M0 222.08 L14.17 222.08" class="st12"/>
		</g>
		<g id="shape40-118" v:mID="40" v:groupContext="shape" transform="translate(707.385,51.8711) rotate(90)">
			<title>Sheet.40</title>
			<path d="M0 222.08 L14.17 222.08" class="st12"/>
		</g>
		<g id="shape41-121" v:mID="41" v:groupContext="shape" transform="translate(398.64,-161.701)">
			<title>Sheet.41</title>
			<desc>10 Km</desc>
			<v:textBlock v:margins="rect(2,2,2,2)" v:tabSpace="42.5197"/>
			<v:textRect cx="38.2323" cy="213.572" width="76.47" height="17.0079"/>
			<rect x="0" y="205.068" width="76.4646" height="17.0079" class="st5"/>
			<text x="25.44" y="216.57" class="st7" v:langID="1053"><v:paragraph v:horizAlign="1"/><v:tabList/>10 Km</text>		</g>
		<g id="shape42-124" v:mID="42" v:groupContext="shape" transform="translate(429.785,-161.701)">
			<title>Sheet.42</title>
			<desc>25 Km</desc>
			<v:textBlock v:margins="rect(2,2,2,2)" v:tabSpace="42.5197"/>
			<v:textRect cx="38.2323" cy="213.572" width="76.47" height="17.0079"/>
			<rect x="0" y="205.068" width="76.4646" height="17.0079" class="st5"/>
			<text x="25.44" y="216.57" class="st7" v:langID="1053"><v:paragraph v:horizAlign="1"/><v:tabList/>25 Km</text>		</g>
		<g id="shape43-127" v:mID="43" v:groupContext="shape" transform="translate(563.687,-141.859)">
			<title>Sheet.43</title>
			<desc>G3</desc>
			<v:textBlock v:margins="rect(2,2,2,2)" v:tabSpace="42.5197"/>
			<v:textRect cx="21.064" cy="201.34" width="42.13" height="41.4731"/>
			<ellipse cx="21.064" cy="201.34" rx="21.064" ry="20.7366" class="st3"/>
			<text x="13.1" y="205.54" class="st4" v:langID="1053"><v:paragraph v:horizAlign="1"/><v:tabList/>G3</text>		</g>
		<g id="shape44-130" v:mID="44" v:groupContext="shape" transform="translate(560.144,-181.544)">
			<title>Sheet.44</title>
			<desc>900 MVA</desc>
			<v:textBlock v:margins="rect(2,2,2,2)" v:tabSpace="42.5197"/>
			<v:textRect cx="26.5748" cy="213.572" width="53.15" height="17.0079"/>
			<rect x="0" y="205.068" width="53.1496" height="17.0079" class="st5"/>
			<text x="4.09" y="217.17" class="st11" v:langID="1053"><v:paragraph v:horizAlign="1"/><v:tabList/>900 MVA</text>		</g>
		<g id="shape45-133" v:mID="45" v:groupContext="shape" transform="translate(484.659,-161.947) rotate(-0.118052)">
			<title>Sheet.45</title>
			<path d="M0 222.08 L22.82 222.08" class="st12"/>
		</g>
		<g id="group46-136" transform="translate(507.931,-150.363)" v:mID="46" v:groupContext="group">
			<title>Sheet.46</title>
			<g id="shape47-137" v:mID="47" v:groupContext="shape">
				<title>Sheet.47</title>
				<ellipse cx="11.9055" cy="210.029" rx="11.9055" ry="12.0472" class="st3"/>
			</g>
			<g id="shape48-139" v:mID="48" v:groupContext="shape" transform="translate(12.4724,2.84217E-014)">
				<title>Sheet.48</title>
				<ellipse cx="11.9055" cy="210.029" rx="11.9055" ry="12.0472" class="st3"/>
			</g>
		</g>
		<g id="shape49-141" v:mID="49" v:groupContext="shape" transform="translate(487.841,-129.103)">
			<title>Sheet.49</title>
			<desc>900 MVA 20 kV / 230 kV</desc>
			<v:textBlock v:margins="rect(2,2,2,2)" v:tabSpace="42.5197"/>
			<v:textRect cx="38.2323" cy="213.572" width="76.47" height="17.0079"/>
			<rect x="0" y="205.068" width="76.4646" height="17.0079" class="st5"/>
			<text x="19.49" y="210.57" class="st7" v:langID="1053"><v:paragraph v:horizAlign="1"/><v:tabList/>900 MVA<v:newlineChar/><tspan
						x="8.89" dy="1.2em" class="st8">20 </tspan>kV / 230 kV</text>		</g>
		<g id="shape50-145" v:mID="50" v:groupContext="shape" transform="translate(544.15,-161.156)">
			<title>Sheet.50</title>
			<path d="M0 222.08 L19.91 222.08" class="st12"/>
		</g>
		<g id="shape51-148" v:mID="51" v:groupContext="shape" transform="translate(563.468,-65.3233)">
			<title>Sheet.51</title>
			<desc>G4</desc>
			<v:textBlock v:margins="rect(2,2,2,2)" v:tabSpace="42.5197"/>
			<v:textRect cx="18.938" cy="203.433" width="37.88" height="37.2872"/>
			<ellipse cx="18.938" cy="203.433" rx="18.938" ry="18.6436" class="st3"/>
			<text x="10.97" y="207.63" class="st4" v:langID="1053"><v:paragraph v:horizAlign="1"/><v:tabList/>G4</text>		</g>
		<g id="group52-151" transform="translate(502.281,-72.4099)" v:mID="52" v:groupContext="group">
			<title>Sheet.52</title>
			<g id="shape53-152" v:mID="53" v:groupContext="shape">
				<title>Sheet.53</title>
				<ellipse cx="11.9055" cy="210.029" rx="11.9055" ry="12.0472" class="st3"/>
			</g>
			<g id="shape54-154" v:mID="54" v:groupContext="shape" transform="translate(12.4724,2.84217E-014)">
				<title>Sheet.54</title>
				<ellipse cx="11.9055" cy="210.029" rx="11.9055" ry="12.0472" class="st3"/>
			</g>
		</g>
		<g id="shape55-156" v:mID="55" v:groupContext="shape" transform="translate(482.191,-51.1501)">
			<title>Sheet.55</title>
			<desc>900 MVA 20 kV / 230 kV</desc>
			<v:textBlock v:margins="rect(2,2,2,2)" v:tabSpace="42.5197"/>
			<v:textRect cx="38.2323" cy="213.572" width="76.47" height="17.0079"/>
			<rect x="0" y="205.068" width="76.4646" height="17.0079" class="st5"/>
			<text x="19.49" y="210.57" class="st7" v:langID="1053"><v:paragraph v:horizAlign="1"/><v:tabList/>900 MVA<v:newlineChar/><tspan
						x="8.89" dy="1.2em" class="st8">20 </tspan>kV / 230 kV</text>		</g>
		<g id="shape56-160" v:mID="56" v:groupContext="shape" transform="translate(563.671,361.958) rotate(179.97)">
			<title>Sheet.56</title>
			<path d="M0 222.08 L25.2 222.08" class="st12"/>
		</g>
		<g id="shape57-163" v:mID="57" v:groupContext="shape" transform="translate(453.278,-82.596)">
			<title>Sheet.57</title>
			<path d="M49.15 222.08 L7.65 222.08 L7.65 147.22 L0 147.22" class="st12"/>
		</g>
		<g id="shape58-166" v:mID="58" v:groupContext="shape" transform="translate(555.831,-102.174)">
			<title>Sheet.58</title>
			<desc>900 MVA</desc>
			<v:textBlock v:margins="rect(2,2,2,2)" v:tabSpace="42.5197"/>
			<v:textRect cx="26.5748" cy="213.572" width="53.15" height="17.0079"/>
			<rect x="0" y="205.068" width="53.1496" height="17.0079" class="st5"/>
			<text x="4.09" y="217.17" class="st11" v:langID="1053"><v:paragraph v:horizAlign="1"/><v:tabList/>900 MVA</text>		</g>
		<g id="shape59-169" v:mID="59" v:groupContext="shape" transform="translate(409.057,-90.1265)">
			<title>Sheet.59</title>
			<desc>Local Loads</desc>
			<v:textBlock v:margins="rect(2,2,2,2)" v:tabSpace="42.5197"/>
			<v:textRect cx="16.7244" cy="202.942" width="33.45" height="38.2677"/>
			<rect x="0" y="183.809" width="33.4488" height="38.2677" class="st3"/>
			<text x="6.33" y="199.94" class="st7" v:langID="1053"><v:paragraph v:horizAlign="1"/><v:tabList/>Local <tspan x="5.01"
						dy="1.2em" class="st8">Loads</tspan></text>		</g>
		<g id="shape60-173" v:mID="60" v:groupContext="shape" transform="translate(418.978,-128.394)">
			<title>Sheet.60</title>
			<path d="M0 196.56 L7.09 196.56 L7.09 222.08" class="st12"/>
		</g>
		<g id="shape61-176" v:mID="61" v:groupContext="shape" transform="translate(380.179,-65.3233)">
			<title>Sheet.61</title>
			<desc>1767 MW 100 MVAR (Inductive) -537 MVAR (Capacitive)</desc>
			<v:textBlock v:margins="rect(2,2,2,2)" v:tabSpace="42.5197"/>
			<v:textRect cx="45.3189" cy="213.572" width="90.64" height="17.0079"/>
			<rect x="0" y="205.068" width="90.6378" height="17.0079" class="st5"/>
			<text x="27.33" y="205.47" class="st14" v:langID="1053"><v:paragraph v:horizAlign="1"/><v:tabList/>1767 MW<v:newlineChar/><tspan
						x="5.32" dy="1.2em" class="st8">100 </tspan>MVAR (Inductive)<v:newlineChar/><tspan x="2.07" dy="1.2em"
						class="st8">-</tspan>537 MVAR (Capacitive)</text>		</g>
		<g id="shape62-181" v:mID="62" v:groupContext="shape" transform="translate(472.27,-196.141)">
			<title>Sheet.62</title>
			<desc>Area 2</desc>
			<v:textBlock v:margins="rect(2,2,2,2)" v:tabSpace="42.5197"/>
			<v:textRect cx="26.0246" cy="209.484" width="52.05" height="25.1851"/>
			<rect x="0" y="196.891" width="52.0492" height="25.1851" class="st5"/>
			<text x="2.29" y="214.88" class="st6" v:langID="1053"><v:paragraph v:horizAlign="1"/><v:tabList/>Area 2</text>		</g>
		<g id="shape63-184" v:mID="63" v:groupContext="shape" transform="translate(174.76,-171.623)">
			<title>Sheet.63</title>
			<desc>Bus1</desc>
			<v:textBlock v:margins="rect(2,2,2,2)" v:tabSpace="42.5197"/>
			<v:textRect cx="20.5157" cy="213.572" width="41.04" height="17.0079"/>
			<rect x="0" y="205.068" width="41.0315" height="17.0079" class="st5"/>
			<text x="10.68" y="216.57" class="st7" v:langID="1053"><v:paragraph v:horizAlign="1"/><v:tabList/>Bus1</text>		</g>
		<g id="shape64-187" v:mID="64" v:groupContext="shape" transform="translate(397.152,-171.623)">
			<title>Sheet.64</title>
			<desc>Bus2</desc>
			<v:textBlock v:margins="rect(2,2,2,2)" v:tabSpace="42.5197"/>
			<v:textRect cx="20.5157" cy="213.572" width="41.04" height="17.0079"/>
			<rect x="0" y="205.068" width="41.0315" height="17.0079" class="st5"/>
			<text x="10.68" y="216.57" class="st7" v:langID="1053"><v:paragraph v:horizAlign="1"/><v:tabList/>Bus2</text>		</g>
		<g id="shape65-190" v:mID="65" v:groupContext="shape" transform="translate(548.615,50.2686) rotate(90)">
			<title>Sheet.65</title>
			<path d="M0 222.08 L21.26 222.08" class="st12"/>
		</g>
		<g id="shape66-193" v:mID="66" v:groupContext="shape" transform="translate(323.987,-98.107)">
			<title>Sheet.66</title>
			<desc>SVC</desc>
			<v:textBlock v:margins="rect(2,2,2,2)" v:tabSpace="42.5197"/>
			<v:textRect cx="16.7244" cy="206.486" width="33.45" height="31.1811"/>
			<rect x="0" y="190.895" width="33.4488" height="31.1811" class="st15"/>
			<text x="7.36" y="210.09" class="st11" v:langID="1053"><v:paragraph v:horizAlign="1"/><v:tabList/>SVC</text>		</g>
		<g id="shape67-196" v:mID="67" v:groupContext="shape" transform="translate(326.538,-129.288)">
			<title>Sheet.67</title>
			<path d="M14.17 222.08 L14.17 205.07 A7.08661 7.08661 -180 0 0 7.09 197.98 L0 197.98" class="st16"/>
		</g>
		<g id="shape68-202" v:mID="68" v:groupContext="shape" transform="translate(261.058,-41.414)">
			<title>Sheet.68</title>
			<desc>POD</desc>
			<v:textBlock v:margins="rect(2,2,2,2)" v:tabSpace="42.5197"/>
			<v:textRect cx="16.7244" cy="206.486" width="33.45" height="31.1811"/>
			<rect x="0" y="190.895" width="33.4488" height="31.1811" class="st18"/>
			<text x="5.96" y="210.09" class="st11" v:langID="1053"><v:paragraph v:horizAlign="1"/><v:tabList/>POD</text>		</g>
		<g id="shape69-205" v:mID="69" v:groupContext="shape" transform="translate(208.901,-187.398)">
			<title>Sheet.69</title>
			<desc>PMU 1</desc>
			<v:textBlock v:margins="rect(2,2,2,2)" v:tabSpace="42.5197"/>
			<v:textRect cx="18.9921" cy="206.486" width="37.99" height="31.1811"/>
			<rect x="0" y="190.895" width="37.9843" height="31.1811" class="st19"/>
			<text x="2.52" y="210.09" class="st11" v:langID="1053"><v:paragraph v:horizAlign="1"/><v:tabList/>PMU 1</text>		</g>
		<g id="shape70-208" v:mID="70" v:groupContext="shape" transform="translate(380.711,-187.398)">
			<title>Sheet.70</title>
			<desc>PMU 2</desc>
			<v:textBlock v:margins="rect(2,2,2,2)" v:tabSpace="42.5197"/>
			<v:textRect cx="18.9921" cy="206.486" width="37.99" height="31.1811"/>
			<rect x="0" y="190.895" width="37.9843" height="31.1811" class="st19"/>
			<text x="2.52" y="210.09" class="st11" v:langID="1053"><v:paragraph v:horizAlign="1"/><v:tabList/>PMU 2</text>		</g>
		<g id="shape71-211" v:mID="71" v:groupContext="shape" transform="translate(196.516,-170.39)">
			<title>Sheet.71</title>
			<path d="M0 222.08 L23.44 222.08 A8.50394 8.50394 -180 0 0 31.94 213.57 L31.94 205.07" class="st16"/>
		</g>
		<g id="shape72-216" v:mID="72" v:groupContext="shape" transform="translate(400.553,-170.39)">
			<title>Sheet.72</title>
			<path d="M18.43 222.08 L8.5 222.08 A8.50394 8.50394 0 0 1 -0 213.57 L0 205.07" class="st16"/>
		</g>
		<g id="shape73-221" v:mID="73" v:groupContext="shape" transform="translate(294.507,-58.4219)">
			<title>Sheet.73</title>
			<path d="M0 222.08 L24.38 222.08" class="st20"/>
		</g>
		<g id="shape74-227" v:mID="74" v:groupContext="shape" transform="translate(339.294,-132.123)">
			<title>Sheet.74</title>
			<desc>Isvc</desc>
			<v:textBlock v:margins="rect(2,2,2,2)" v:tabSpace="42.5197"/>
			<v:textRect cx="9.92126" cy="213.572" width="19.85" height="17.0079"/>
			<rect x="0" y="205.068" width="19.8425" height="17.0079" class="st5"/>
			<text x="2.33" y="216.57" class="st7" v:langID="1053"><v:paragraph v:horizAlign="1"/><v:tabList/>Isvc</text>		</g>
		<g id="shape75-230" v:mID="75" v:groupContext="shape" transform="translate(280.901,-74.8629)">
			<title>Sheet.75</title>
			<desc>Vmeasure</desc>
			<v:textBlock v:margins="rect(2,2,2,2)" v:tabSpace="42.5197"/>
			<v:textRect cx="19.8425" cy="213.572" width="39.69" height="17.0079"/>
			<rect x="0" y="205.068" width="39.685" height="17.0079" class="st5"/>
			<text x="5.51" y="216.57" class="st7" v:langID="1053"><v:paragraph v:horizAlign="1"/><v:tabList/>V<tspan dy="-0.284em"
						class="st22" v:baseFontSize="10">measure</tspan></text>		</g>
		<g id="shape76-234" v:mID="76" v:groupContext="shape" transform="translate(284.019,-44.107)">
			<title>Sheet.76</title>
			<desc>Vref</desc>
			<v:textBlock v:margins="rect(2,2,2,2)" v:tabSpace="42.5197"/>
			<v:textRect cx="22.6772" cy="213.572" width="45.36" height="17.0079"/>
			<rect x="0" y="205.068" width="45.3543" height="17.0079" class="st5"/>
			<text x="14.78" y="217.17" class="st11" v:langID="1053"><v:paragraph v:horizAlign="1"/><v:tabList/>V<tspan
						dy="-0.284em" class="st23" v:baseFontSize="12">ref</tspan></text>		</g>
		<g id="shape77-238" v:mID="77" v:groupContext="shape" transform="translate(292.664,-59.2628)">
			<title>Sheet.77</title>
			<desc>ΔVPOD</desc>
			<v:textBlock v:margins="rect(2,2,2,2)" v:tabSpace="42.5197"/>
			<v:textRect cx="13.6063" cy="213.572" width="27.22" height="17.0079"/>
			<rect x="0" y="205.068" width="27.2126" height="17.0079" class="st5"/>
			<text x="2.12" y="216.57" class="st7" v:langID="1053"><v:paragraph v:horizAlign="1"/><v:tabList/>ΔV<tspan dy="-0.284em"
						class="st22" v:baseFontSize="10">POD</tspan></text>		</g>
		<g id="group78-242" transform="translate(318.885,-41.414)" v:mID="78" v:groupContext="group">
			<title>Sheet.78</title>
			<g id="shape79-243" v:mID="79" v:groupContext="shape">
				<title>Sheet.79</title>
				<rect x="0" y="181.815" width="11.3386" height="40.2615" class="st3"/>
			</g>
			<g id="shape80-245" v:mID="80" v:groupContext="shape" transform="translate(2.83465,-33.4488)">
				<title>Sheet.80</title>
				<path d="M0 222.08 L5.96 222.08" class="st12"/>
			</g>
			<g id="group81-248" transform="translate(2.68928,-1.97738)" v:mID="81" v:groupContext="group">
				<title>Sheet.81</title>
				<g id="shape82-249" v:mID="82" v:groupContext="shape" transform="translate(0,-3.54674)">
					<title>Sheet.82</title>
					<path d="M0 222.08 L5.81 222.08" class="st12"/>
				</g>
				<g id="shape83-252" v:mID="83" v:groupContext="shape" transform="translate(224.984,214.983) rotate(90)">
					<title>Sheet.83</title>
					<path d="M0 222.08 L7.09 222.08" class="st12"/>
				</g>
			</g>
			<g id="shape84-255" v:mID="84" v:groupContext="shape" transform="translate(2.46231,-17.7337)">
				<title>Sheet.84</title>
				<path d="M0 222.08 L5.96 222.08" class="st12"/>
			</g>
		</g>
		<g id="shape85-258" v:mID="85" v:groupContext="shape" transform="translate(301.877,-35.7447)">
			<title>Sheet.85</title>
			<path d="M17.01 211.3 L5.39 211.3 A5.38583 5.38583 -180 0 0 0 216.69 L0 222.08" class="st24"/>
		</g>
		<g id="shape86-264" v:mID="86" v:groupContext="shape" transform="translate(285.436,-75.4298)">
			<title>Sheet.86</title>
			<path d="M35.43 141.29 L8.5 141.29 A8.50394 8.50394 -180 0 0 0 149.79 L0 213.57 A8.50394 8.50394 -180 0 0 8.5 222.08
						 L33.57 222.08" class="st26"/>
		</g>
		<g id="shape87-270" v:mID="87" v:groupContext="shape" transform="translate(330.507,-58.4219)">
			<title>Sheet.87</title>
			<path d="M0 222.08 L5.81 222.08 A5.81102 5.81102 -180 0 0 11.62 216.27 L11.62 182.39" class="st27"/>
		</g>
		<g id="shape88-275" v:mID="88" v:groupContext="shape" transform="translate(320.869,-156.217)">
			<title>Sheet.88</title>
			<path d="M0 222.08 L5.67 222.08" class="st28"/>
		</g>
		<g id="shape89-278" v:mID="89" v:groupContext="shape" transform="translate(333.625,-69.7605)">
			<title>Sheet.89</title>
			<desc>Verror</desc>
			<v:textBlock v:margins="rect(2,2,2,2)" v:tabSpace="42.5197"/>
			<v:textRect cx="19.8425" cy="213.572" width="39.69" height="17.0079"/>
			<rect x="0" y="205.068" width="39.685" height="17.0079" class="st5"/>
			<text x="10.28" y="216.57" class="st7" v:langID="1053"><v:paragraph v:horizAlign="1"/><v:tabList/>V<tspan dy="-0.284em"
						class="st22" v:baseFontSize="10">error</tspan></text>		</g>
		<g id="shape91-282" v:mID="91" v:groupContext="shape" transform="translate(63.3597,180.662) rotate(-90) scale(-1,1)">
			<title>Fancy arrow</title>
			<v:userDefs>
				<v:ud v:nameU="visVersion" v:val="VT0(14):26"/>
			</v:userDefs>
			<path d="M0 213.57 L8.5 205.07 L10.63 207.19 L6.38 211.45 L19.84 211.45 L19.84 215.7 L6.38 215.7 L10.63 219.95 L8.5 222.08
						 L0 213.57 Z" class="st29"/>
		</g>
		<g id="shape92-284" v:mID="92" v:groupContext="shape" transform="translate(234.483,-2.29593)">
			<title>Sheet.92</title>
			<desc>Synchrophasors from PMU1 and PMU 2</desc>
			<v:textBlock v:margins="rect(2,2,2,2)" v:tabSpace="42.5197"/>
			<v:textRect cx="45.3189" cy="213.572" width="90.64" height="17.0079"/>
			<rect x="0" y="205.068" width="90.6378" height="17.0079" class="st5"/>
			<text x="6.37" y="210.87" class="st14" v:langID="1053"><v:paragraph v:horizAlign="1"/><v:tabList/>Synchrophasors from <tspan
						x="12.7" dy="1.2em" class="st8">PMU</tspan>1 and PMU 2</text>		</g>
	</g>
</svg>
